<svg width="16" height="16" viewBox="0 0 16 16" fill="none" xmlns="http://www.w3.org/2000/svg">
<g clip-path="url(#clip0_0_234)">
<g filter="url(#filter0_d_0_234)">
<path d="M13.7143 1.33334H2.28275C1.75894 1.33334 1.33334 1.76489 1.33334 2.29465V13.7054C1.33334 14.2351 1.75894 14.6667 2.28275 14.6667H13.7143C14.2381 14.6667 14.6667 14.2351 14.6667 13.7054V2.29465C14.6667 1.76489 14.2381 1.33334 13.7143 1.33334ZM5.36311 12.7619H3.38691V6.39882H5.36608V12.7619H5.36311ZM4.37501 5.52977C3.74108 5.52977 3.22918 5.01489 3.22918 4.38394C3.22918 3.75299 3.74108 3.23811 4.37501 3.23811C5.00596 3.23811 5.52084 3.75299 5.52084 4.38394C5.52084 5.01787 5.00894 5.52977 4.37501 5.52977ZM12.7708 12.7619H10.7947V9.66668C10.7947 8.92858 10.7798 7.97918 9.76787 7.97918C8.73811 7.97918 8.58037 8.78275 8.58037 9.61311V12.7619H6.60418V6.39882H8.50001V7.26787H8.5268C8.79168 6.76787 9.43751 6.24108 10.3988 6.24108C12.3988 6.24108 12.7708 7.55953 12.7708 9.27382V12.7619Z" fill="white"/>
<path d="M2.88691 12.7619V13.2619H3.38691H5.36311H5.36608H5.86608V12.7619V6.39882V5.89882H5.36608H5.02028C5.60892 5.64824 6.02084 5.06488 6.02084 4.38394C6.02084 3.47684 5.2821 2.73811 4.37501 2.73811C3.46409 2.73811 2.72918 3.47769 2.72918 4.38394C2.72918 5.06251 3.14122 5.64765 3.73066 5.89882H3.38691H2.88691V6.39882V12.7619ZM12.7708 13.2619H13.2708V12.7619V9.27382C13.2708 8.40536 13.1821 7.52081 12.7578 6.84788C12.3001 6.12224 11.5223 5.74108 10.3988 5.74108C9.85096 5.74108 9.38041 5.88436 9.00001 6.105V5.89882H8.50001H6.60418H6.10418V6.39882V12.7619V13.2619H6.60418H8.58037H9.08037V12.7619V9.61311C9.08037 9.20716 9.12365 8.91128 9.22571 8.72635C9.27026 8.64564 9.32289 8.59232 9.38996 8.5552C9.45993 8.51649 9.57538 8.47918 9.76787 8.47918C9.94072 8.47918 10.0256 8.51865 10.0686 8.54873C10.1127 8.57964 10.1569 8.63169 10.1957 8.72984C10.2846 8.95479 10.2947 9.27588 10.2947 9.66668V12.7619V13.2619H10.7947H12.7708ZM2.28275 1.83334H13.7143C13.9579 1.83334 14.1667 2.03698 14.1667 2.29465V13.7054C14.1667 13.963 13.9579 14.1667 13.7143 14.1667H2.28275C2.04114 14.1667 1.83334 13.9651 1.83334 13.7054V2.29465C1.83334 2.03493 2.04114 1.83334 2.28275 1.83334Z" stroke="black"/>
</g>
</g>
<defs>
<filter id="filter0_d_0_234" x="-2.66666" y="1.33334" width="21.3333" height="21.3333" filterUnits="userSpaceOnUse" color-interpolation-filters="sRGB">
<feFlood flood-opacity="0" result="BackgroundImageFix"/>
<feColorMatrix in="SourceAlpha" type="matrix" values="0 0 0 0 0 0 0 0 0 0 0 0 0 0 0 0 0 0 127 0" result="hardAlpha"/>
<feOffset dy="4"/>
<feGaussianBlur stdDeviation="2"/>
<feComposite in2="hardAlpha" operator="out"/>
<feColorMatrix type="matrix" values="0 0 0 0 0 0 0 0 0 0 0 0 0 0 0 0 0 0 0.25 0"/>
<feBlend mode="normal" in2="BackgroundImageFix" result="effect1_dropShadow_0_234"/>
<feBlend mode="normal" in="SourceGraphic" in2="effect1_dropShadow_0_234" result="shape"/>
</filter>
<clipPath id="clip0_0_234">
<rect width="16" height="16" fill="white"/>
</clipPath>
</defs>
</svg>
