<svg width="25" height="24" viewBox="0 0 25 24" fill="none" xmlns="http://www.w3.org/2000/svg">
<path d="M6.10241 4.70721L12.5 7.90561L18.8976 4.70721C18.8739 4.29957 18.6953 3.9164 18.3983 3.63619C18.1012 3.35598 17.7083 3.19994 17.3 3.20001H7.70001C7.29167 3.19994 6.89876 3.35598 6.60175 3.63619C6.30473 3.9164 6.12609 4.29957 6.10241 4.70721Z" fill="#1E1F26"/>
<path d="M18.9 6.49441L12.5 9.69441L6.10001 6.49441V11.2C6.10001 11.6244 6.26858 12.0313 6.56864 12.3314C6.86869 12.6314 7.27566 12.8 7.70001 12.8H17.3C17.7244 12.8 18.1313 12.6314 18.4314 12.3314C18.7314 12.0313 18.9 11.6244 18.9 11.2V6.49441Z" fill="#1E1F26"/>
</svg>


